<svg width="65" height="69" viewBox="0 0 65 69" fill="none" xmlns="http://www.w3.org/2000/svg">
<path d="M9.06182 14.4258C9.20118 14.7219 9.13289 14.7865 8.96757 15.0542C8.33738 16.0745 7.78254 17.1184 7.34011 18.2337C6.60958 20.0752 6.00262 21.9281 5.32935 23.7884C4.71563 25.4842 3.79748 27.0413 3.14264 28.7148C2.488 30.3878 2.17926 32.3209 1.88592 34.081C1.6127 35.7203 1.4518 37.391 1.14445 39.0199C0.837174 40.6485 1.08075 42.5256 1.31411 44.1411C1.636 46.3696 2.26632 48.5814 3.24318 50.6132C4.05728 52.3065 4.61902 54.1273 5.60583 55.7344C9.25579 61.6786 15.8944 64.3192 22.4271 65.7191C25.93 66.4697 29.5633 66.8191 33.1156 66.1087C34.7462 65.7825 36.259 65.2576 37.7906 64.6194C39.6138 63.8598 41.5275 63.1159 43.2699 62.1877C45.9543 60.7576 48.5915 58.8745 50.672 56.6518C53.4287 53.7066 55.786 50.4615 57.9359 47.0504C58.6401 45.9331 59.0524 44.597 59.6388 43.4122C60.273 42.1304 60.9116 40.9046 61.3416 39.5352C62.2921 36.5084 63.3693 33.6698 63.6289 30.4805C63.8147 28.1973 63.707 25.8949 63.0633 23.6879C62.4311 21.5203 62.0324 19.3281 61.128 17.2409C59.6735 13.8843 58.3216 10.1239 55.6863 7.48869C53.7873 5.58964 50.7687 5.53012 48.3848 4.62336C45.4732 3.51589 42.6156 2.32587 39.4872 2.00937C37.5561 1.81401 35.4338 1.72371 33.4926 1.89626C30.4587 2.16594 27.5234 2.90493 24.7458 4.1835C23.7831 4.62662 22.7609 4.92076 21.805 5.37739C20.3312 6.08146 18.9946 7.05669 17.5824 7.87199C16.3054 8.60927 14.9687 9.25834 13.7997 10.1655C12.9848 10.7979 12.2778 11.5492 11.5501 12.2768C7.94004 15.8869 4.84732 20.3619 3.74587 25.397" stroke="#050203" stroke-linecap="square" stroke-dasharray="1 4"/>
<path d="M4.76384 25.8496C3.59503 30.2326 2.33834 34.6957 1.70999 39.196C1.40977 41.3463 1.62642 43.6612 2.28809 45.731C2.90581 47.6634 3.77813 49.5234 4.57533 51.3863C5.82795 54.3133 7.52235 57.0238 9.86614 59.2031C11.0559 60.3094 12.3546 61.65 13.762 62.4894C14.9322 63.1875 16.1829 63.7325 17.4191 64.2991C19.1804 65.1064 21.0616 65.9074 22.9864 66.2094C26.4409 66.7512 29.4517 65.0375 32.4746 63.6268" stroke="#050203" stroke-linecap="square" stroke-dasharray="1 4"/>
<path d="M11.7764 61.0247C14.3612 61.5921 16.8574 62.5159 19.455 63.0354C22.3176 63.608 25.265 63.6913 28.1766 63.7329C30.9137 63.772 33.6345 63.5512 36.3454 63.1737C39.0465 62.7976 41.2114 61.9221 43.559 60.5723" stroke="#050203" stroke-linecap="square" stroke-dasharray="1 4"/>
<path d="M14.8303 63.0616C20.7183 64.1322 26.6784 65.3857 32.701 65.129C37.3308 64.9316 41.7279 63.2986 45.8212 61.252" stroke="#050203" stroke-linecap="square" stroke-dasharray="1 4"/>
<path d="M16.8894 63.243C18.8487 63.243 20.8101 63.1378 22.7663 63.0575C27.9249 62.8456 33.1006 62.6931 38.2474 62.2648C39.3312 62.1747 39.993 61.9976 40.9539 61.6965C41.5999 61.494 40.8407 61.7925 40.6832 61.8666C39.5165 62.4157 38.3878 63.0178 37.1803 63.4789C35.9695 63.9412 34.7537 64.3189 33.4647 64.4842C32.1779 64.6491 30.9247 64.5474 29.6408 64.4107C27.449 64.1774 25.281 63.8522 23.0834 63.6606C22.3036 63.5927 21.4976 63.5208 20.748 63.2817C20.4777 63.1955 20.2178 63.0779 19.9516 62.9801C19.8315 62.936 19.6636 62.8423 19.8356 62.9879C20.5441 63.5874 21.3425 63.9618 22.2095 64.287C23.7516 64.8652 25.3599 65.3623 26.9536 65.7755C30.2263 66.624 33.7224 66.969 36.9483 65.7446C37.4148 65.5675 37.8735 65.3666 38.317 65.1376C38.5158 65.0349 39.1009 64.818 38.8815 64.7741C38.797 64.7572 38.5946 64.8399 38.5335 64.8592C38.0383 65.0156 37.5607 65.2232 37.0759 65.4082C34.1026 66.5431 30.8497 67.8042 27.6225 67.6662C25.7799 67.5874 23.9622 67.0748 22.1941 66.5836C20.7194 66.174 19.294 65.6634 17.8637 65.1221C16.9037 64.7588 15.9584 64.3568 14.9871 64.0241C14.7874 63.9557 14.5859 63.8774 14.3839 63.8153C14.3455 63.8034 14.45 63.8662 14.4613 63.8694C15.0454 64.0363 15.5953 64.391 16.1316 64.6659C17.3866 65.3091 18.6648 65.8968 19.9941 66.371C22.7068 67.3386 25.6639 68.0868 28.5659 67.8595C29.9661 67.7499 31.3312 67.4182 32.645 66.9316C33.651 66.559 34.7011 66.2181 35.6337 65.6789C35.9988 65.4678 36.2873 65.3475 35.7768 65.327C34.4872 65.2755 33.2002 65.079 31.922 64.9133C29.9296 64.6552 27.9526 64.3973 26.0141 63.8501C23.4964 63.1393 21.0102 62.0964 18.4282 61.6346C18.1825 61.5907 18.3697 61.6958 18.4591 61.7429C18.9032 61.9766 19.3706 62.1743 19.8356 62.3615C20.937 62.8049 22.1154 63.1643 23.2767 63.4132C27.6917 64.3592 32.3378 63.9036 36.7124 62.9685C39.6107 62.3491 42.6086 61.7179 45.3384 60.5443C46.5651 60.0169 47.8134 59.3639 48.8607 58.526C48.9163 58.4815 49.6081 57.8653 49.3904 57.8842C48.9544 57.9221 48.4992 58.2687 48.1454 58.4874C47.0051 59.192 45.8779 59.9183 44.7391 60.6255C44.6223 60.698 42.7646 61.7026 42.7634 61.6965C42.7242 61.5006 43.3367 61.0176 43.4361 60.9348C44.4004 60.1312 45.4873 59.4625 46.4983 58.7194C47.6902 57.8432 48.8921 56.9507 50.0013 55.9703C52.064 54.147 53.6349 51.8986 55.2325 49.6758C55.7363 48.9749 56.2011 48.094 56.8332 47.499C57.4495 46.919 55.8422 48.8713 55.3446 49.556C53.0298 52.7413 50.7177 55.995 48.0294 58.8817C44.5689 62.5977 54.463 51.0071 57.3165 46.807C57.9484 45.8769 58.6004 44.9129 58.9481 43.8337C59.1751 43.1294 59.2558 42.3964 59.443 41.684C59.8186 40.2549 60.2656 38.8335 60.6803 37.4155C61.1345 35.8623 61.9222 34.4206 62.25 32.8299C62.4997 31.6188 62.402 30.4131 62.7527 29.2109" stroke="#050203" stroke-linecap="square" stroke-dasharray="1 4"/>
<path d="M5.1278 33.3867C4.6228 35.6873 4.77982 38.1746 4.77982 40.5202C4.77982 43.1818 5.09157 45.8173 5.61497 48.427C6.02788 50.4859 6.67746 52.5864 7.63323 54.4625C7.92517 55.0356 8.26268 55.5715 8.63076 56.098C8.70965 56.2108 8.96209 56.4907 8.95554 56.3532C8.94471 56.1257 8.74944 55.823 8.65783 55.6302C8.20686 54.6807 7.68074 53.7626 7.20793 52.8231C6.05143 50.5254 4.8795 48.2094 4.1148 45.7438C3.30239 43.1243 3.07537 40.2576 3.04381 37.5276C3.03654 36.8987 3.02799 36.265 3.07087 35.637C3.08234 35.4689 3.08486 35.1042 3.21006 34.9449C3.34246 34.7764 3.57136 35.4337 3.5735 35.4398C4.36676 37.7101 4.17788 40.1941 4.1844 42.5578C4.19014 44.6428 4.28235 46.7282 4.5749 48.7943C4.76128 50.1106 5.12388 51.4047 5.40618 52.7033C5.63794 53.7694 5.95781 54.7416 6.34572 55.7616C6.54656 56.2898 6.71922 56.8293 6.93728 57.3507C7.2131 58.0103 7.60595 58.4972 8.08173 59.0287C8.80421 59.8359 9.65532 60.3638 10.5524 60.9503C11.4266 61.522 12.1601 62.1984 13.1313 62.6168C14.922 63.3882 16.6504 64.02 18.5597 64.4262" stroke="#050203" stroke-linecap="square" stroke-dasharray="1 4"/>
<path d="M8.74683 56.2832C9.96315 57.5198 11.2679 58.6709 12.5823 59.8016C13.5517 60.6356 14.5218 61.3906 15.6445 62.0016C17.8666 63.211 20.1822 63.6171 22.6659 63.8691" stroke="#050203" stroke-linecap="square" stroke-dasharray="1 4"/>
<path d="M4.84937 54.1953C5.4662 55.6585 6.5487 56.9603 7.52878 58.1932C8.53441 59.4581 9.64132 60.6662 10.8191 61.7735C11.8654 62.7571 13.0136 63.661 14.3066 64.2982C14.9114 64.5963 15.3972 64.7913 16.0465 64.9826C17.0471 65.2774 18.0255 65.3171 19.0468 65.4698" stroke="#050203" stroke-linecap="square" stroke-dasharray="1 4"/>
<path d="M4.08107 24.3045C4.15253 24.3 4.23495 24.3116 4.27072 24.234C4.82912 23.0242 5.13583 21.5881 5.61454 20.3489C5.62662 20.3176 7.21493 16.6827 6.08596 19.9154C5.33627 22.0621 4.26332 24.0845 3.58256 26.2552C3.36542 26.9476 2.97591 29.0932 3.10572 28.3793C3.33781 27.1028 3.65101 25.8387 3.98896 24.5863C5.63065 18.5023 8.02164 12.1707 13.3252 8.35211C14.2439 7.69062 15.1216 7.00892 16.1483 6.52062C17.175 6.0323 18.223 5.61726 19.2748 5.18764C20.8799 4.53205 22.3 3.64208 23.9782 3.14483C25.4405 2.71154 27.0838 2.79546 28.584 2.47834C30.324 2.11054 32.1181 1.7815 33.878 1.53008C35.7318 1.26525 37.4866 1.61213 39.34 1.67097C41.3042 1.73332 43.2231 1.53957 45.1108 2.22908C46.1031 2.59155 47.0568 3.02509 48.0693 3.33448C49.0093 3.62169 49.9376 3.95244 50.8003 4.42904C52.949 5.6161 55.039 6.82159 56.7499 8.59595C58.3209 10.2251 59.4099 11.9872 60.4075 14.0146C61.3213 15.8716 62.1084 17.6388 62.407 19.6987C62.7407 22.0014 62.9922 24.2234 62.9922 26.5532C62.9922 29.3525 63.3629 32.1475 63.5774 34.9358" stroke="#050203" stroke-linecap="square" stroke-dasharray="1 4"/>
<path d="M57.1399 12.5996C57.4194 12.817 57.5205 12.9758 57.7088 13.3149C58.4961 14.7319 59.2177 16.2054 59.86 17.6931C60.5628 19.3208 60.8103 20.9497 61.2364 22.6457C61.8751 25.1887 63.0408 27.5079 64.1624 29.8633" stroke="#050203" stroke-linecap="square" stroke-dasharray="1 4"/>
<path d="M16.2729 8.01562C16.1729 8.15687 16.0618 8.28672 15.937 8.40576C14.4382 9.83479 12.9445 11.2585 11.6237 12.8599C8.79432 16.2905 7.05129 20.2808 5.25146 24.304" stroke="#050203" stroke-linecap="square" stroke-dasharray="1 4"/>
<path d="M23.6855 4.7974C25.3124 3.86198 27.0875 3.23178 28.8007 2.47824C29.856 2.01408 30.8426 1.44348 31.9814 1.19945C33.613 0.849819 35.2832 1.04036 36.9286 1.16694C41.4726 1.51647 45.4692 4.02594 49.4348 6.06536" stroke="#050203" stroke-linecap="square" stroke-dasharray="1 4"/>
<path d="M17.9309 14.8417C14.8989 17.4221 12.0911 20.6593 10.0306 24.0642C9.54795 24.8617 9.11512 25.7468 8.81142 26.6326C8.76982 26.7539 8.70471 27.0884 8.81142 27.0173C8.91604 26.9476 8.98367 26.705 9.02274 26.6109C9.31431 25.9085 9.56304 25.1904 9.87888 24.4976C11.1093 21.7989 12.7681 19.5098 14.7231 17.2909C16.183 15.6339 17.7302 14.1277 19.4481 12.7393C20.0648 12.2408 20.69 11.7538 21.323 11.2762C21.5555 11.1008 22.2201 10.6719 21.9299 10.6477C21.6636 10.6255 21.3276 10.7253 21.0846 10.794C19.9272 11.1213 18.7873 11.5828 17.7521 12.1974C15.5744 13.4905 13.4543 15.3189 11.9163 17.3342C10.7016 18.9258 9.56843 20.7318 9.0986 22.6987C8.97708 23.2074 8.64617 24.7314 9.38037 23.5982C10.7704 21.4526 11.6237 18.9934 12.9458 16.8032C13.9324 15.169 15.6284 12.9915 17.6654 12.6688C18.0978 12.6003 19.711 12.8213 19.4807 13.5737C19.3282 14.0717 18.9371 14.5728 18.6679 15.0042C17.6349 16.6595 16.5345 18.2711 15.4817 19.9135C14.6077 21.2772 13.7651 22.6584 13.0488 24.1129C12.6141 24.9955 11.3841 27.0219 11.8187 28.1173C12.2239 29.1382 16.4376 25.0942 16.8797 24.6277C17.4955 23.978 18.0779 23.2894 18.6299 22.5849C18.7799 22.3935 19.1821 21.8579 18.9496 21.9292C18.2887 22.132 17.5799 22.6302 17.0206 22.9967C15.6643 23.8853 14.4691 24.963 13.3251 26.107C11.4357 27.9963 9.67432 30.1818 9.0119 32.8315C8.38927 35.322 8.80269 38.0035 9.20156 40.4934C9.90738 44.8994 10.3303 49.3552 12.8266 53.1946C13.31 53.9381 13.8243 54.6833 14.4034 55.3566C14.706 55.7085 15.2502 56.3832 15.7527 56.4837C16.2178 56.5767 15.0527 55.8434 14.7014 55.5246C12.6949 53.7034 10.567 51.7827 9.08776 49.4883C8.24067 48.1744 7.86337 46.8056 7.79814 45.2618C7.7838 44.9225 7.78917 44.5821 7.80897 44.2431C7.82451 43.9771 7.71612 43.4728 7.98237 43.4628C8.07817 43.4592 8.12646 43.5929 8.17744 43.6741C8.49065 44.1729 8.9513 45.2043 9.15279 45.6465C9.85669 47.1911 10.4376 48.8141 11.304 50.2794C12.8172 52.8387 15.0058 55.356 17.8984 56.3591C18.526 56.5767 17.6026 55.63 17.5462 55.5571C16.6677 54.4218 15.7974 53.2667 14.864 52.1759C14.5217 51.7758 14.1565 51.3516 13.7369 51.0271C13.4463 50.8024 14.0517 51.661 14.0837 51.6991C14.5244 52.2218 15.1128 52.6194 15.6605 53.0158C16.7996 53.8401 17.968 54.643 19.2151 55.297C20.1408 55.7824 21.115 56.1854 22.1358 56.4241C23.7595 56.8038 25.1817 56.5781 26.8066 56.4891" stroke="#F4F4F4" stroke-linecap="square" stroke-dasharray="1 4"/>
<path d="M12.2739 23.2305C11.1008 25.4356 10.0749 27.7096 9.03903 29.9821C7.62683 33.0802 5.78588 36.3564 5.22975 39.7681C4.92656 41.628 4.93751 43.5298 5.30561 45.3817C5.74624 47.5985 6.85808 49.3582 7.88487 51.3205" stroke="#F4F4F4" stroke-linecap="square" stroke-dasharray="1 4"/>
<path d="M12.7616 31.1309C12.6755 35.3997 13.1119 39.6161 13.7315 43.8429C14.0511 46.0232 14.3788 48.2065 14.864 50.3561C19.5846 71.2705 13.5498 43.7884 17.7358 57.8554" stroke="#F4F4F4" stroke-linecap="square" stroke-dasharray="1 4"/>
<path d="M11.9812 40.2986C11.9556 40.352 11.8341 40.4659 11.8403 40.4069C12.318 35.8686 13.7959 30.8244 15.189 26.5949C16.781 21.7616 18.2769 17.4115 21.3987 13.3735C22.1448 12.4085 23.1215 11.6158 24.1514 10.9622C25.6402 10.0175 25.9789 10.6649 27.3917 10.2578" stroke="#F4F4F4" stroke-linecap="square" stroke-dasharray="1 4"/>
<path d="M25.7336 9.77139C31.6899 8.17526 37.9028 7.55588 43.9727 6.55273" stroke="#F4F4F4" stroke-linecap="square" stroke-dasharray="1 4"/>
<path d="M39.4861 6.8457C43.9334 8.77931 47.9271 12.0398 51.9706 14.6485" stroke="#F4F4F4" stroke-linecap="square" stroke-dasharray="1 4"/>
<path d="M41.5344 7.52734C42.2986 7.61225 44.0479 9.97898 44.1137 10.0524C45.5474 11.6523 48.1016 14.5365 49.4781 16.1646C61.6362 30.5453 45.5566 11.5191 52.0682 19.5241" stroke="#F4F4F4" stroke-linecap="square" stroke-dasharray="1 4"/>
<path d="M30.6104 9.67383C31.6582 9.67383 33.2711 10.5067 34.0349 10.8226C36.1899 11.7138 39.3412 13.078 41.3934 14.1496C54.6304 21.0613 37.0572 11.9476 45.4357 16.8914" stroke="#F4F4F4" stroke-linecap="square" stroke-dasharray="1 4"/>
<path d="M31.4883 14.1602L40.9492 18.7443" stroke="#F4F4F4" stroke-linecap="square" stroke-dasharray="1 4"/>
<path d="M44.5579 17.2812C46.7191 21.4613 48.2448 26.0045 50.0198 30.3509" stroke="#F4F4F4" stroke-linecap="square" stroke-dasharray="1 4"/>
<path d="M51.678 16.5C51.8659 16.5442 52.0339 16.7849 52.1007 16.9552C52.5413 18.0793 52.9949 19.9992 53.1952 20.9324C53.8151 23.8195 54.5666 27.9443 54.8208 30.8593C55.0244 33.1942 55.0792 35.4192 54.474 37.6868C54.2411 38.5592 53.1246 40.8016 52.6967 41.5882C51.5983 43.6073 50.2558 45.4412 48.947 47.321" stroke="#F4F4F4" stroke-linecap="square" stroke-dasharray="1 4"/>
<path d="M58.1154 21.2793C58.1992 23.2424 58.0021 25.2012 57.8012 27.1531C57.4267 30.7907 57.0476 34.5701 55.6608 37.9903C54.0796 41.8898 51.2767 45.1631 48.6545 48.394" stroke="#F4F4F4" stroke-linecap="square" stroke-dasharray="1 4"/>
<path d="M17.7358 56.4902C21.7514 57.716 26.113 58.3274 30.2853 58.636C32.5484 58.8034 34.7095 58.8359 36.9285 58.3759C38.686 58.0116 38.5699 57.7011 40.1689 57.173" stroke="#F4F4F4" stroke-linecap="square" stroke-dasharray="1 4"/>
<path d="M16.6631 57.5635C20.3403 58.1955 24.2612 58.9118 27.9988 58.5063C32.1969 58.0509 35.7755 55.8184 39.2912 53.6621" stroke="#F4F4F4" stroke-linecap="square" stroke-dasharray="1 4"/>
<path d="M35.0971 23.9132C35.4811 23.9132 34.6279 23.5552 34.501 23.5014C34.0224 23.2986 33.5203 23.0806 33.0272 22.9162C32.217 22.6462 31.4087 22.3949 30.5563 22.5261C29.2671 22.7244 28.0585 23.1631 26.8066 23.5014C26.0964 23.6934 25.2827 23.9437 24.6608 24.3467C23.7418 24.9424 22.9828 25.757 22.0491 26.3299C20.9868 26.9818 20.4552 27.9992 19.7624 28.9851C19.2597 29.7004 19.0872 30.4636 18.7871 31.2717C18.4428 32.1986 17.9687 33.067 17.7359 34.0352C17.0446 36.9095 16.806 40.152 17.66 43.0301C17.9926 44.151 18.465 45.1274 19.0038 46.1512C19.3623 46.8323 20.0377 47.128 20.624 47.5763C22.4609 48.981 24.4452 49.8575 26.7687 49.8575C28.5732 49.8575 30.0904 49.3861 31.6833 48.5896C33.0257 47.9184 34.5503 47.3602 35.6769 46.3463C36.6888 45.4355 37.838 44.4909 38.6137 43.366C39.5217 42.0496 40.1075 40.97 40.364 39.3671C40.5965 37.9136 40.7384 36.5106 40.6511 35.0268C40.4346 31.3451 38.8865 26.7508 34.7069 26.1782C32.1707 25.8308 29.3398 26.5298 27.3918 28.2264C25.8315 29.5854 24.5529 30.9646 23.4362 32.7239C22.1334 34.7764 21.1289 36.7386 21.2688 39.2262C21.4159 41.8419 22.2037 44.7413 24.2924 46.498C26.9323 48.7183 30.5589 48.0468 33.0922 46.032C36.5499 43.2819 38.6372 38.6511 38.4891 34.2411C38.4358 32.6546 37.9381 31.0789 36.831 29.9062C35.6399 28.6445 34.01 28.4393 32.3553 28.6708C30.988 28.862 29.8075 29.8525 28.974 30.9032C27.3297 32.9761 26.3759 35.483 25.8529 38.0558C25.4837 39.8722 25.2515 42.0301 26.7416 43.4311C27.9366 44.5546 29.4168 44.3163 30.7622 43.5611C32.7409 42.4504 34.5568 40.6319 35.5739 38.5977C36.4079 36.9296 36.9573 34.4822 36.3 32.6589C35.8273 31.3476 34.5309 31.4159 33.4065 31.8027C31.4959 32.46 29.7058 33.7385 28.8006 35.5849C28.218 36.7735 27.9813 38.1549 27.8903 39.4646C27.8327 40.295 27.8466 41.2111 28.4322 41.8705C29.4566 43.0241 30.912 41.9141 31.7592 41.1119C33.7167 39.2584 34.9912 36.3377 35.6931 33.7751C35.7601 33.5305 35.7835 33.0978 35.3897 33.3199C34.6155 33.7566 33.9737 34.8869 33.5799 35.6391C32.8948 36.9477 32.5081 38.4141 32.0518 39.8114C31.3715 41.8948 30.3821 44.0044 29.9765 46.1675C29.7651 47.2946 30.0429 49.8536 31.5912 50.0472C32.7845 50.1963 33.7152 49.5162 34.6094 48.7846C35.1871 48.312 35.9039 47.8615 36.4138 47.3216C36.9461 46.758 37.3556 46.1734 37.8281 45.566C38.4342 44.7866 39.0187 44.1028 39.4861 43.2197C39.796 42.6344 40.0522 41.9957 40.4615 41.4695C40.8432 40.9788 41.0092 40.4335 41.2364 39.8656C41.5051 39.1936 41.7548 38.6861 41.8812 37.9637C42.1349 36.5137 42.4122 35.2475 42.4122 33.7643C42.4122 31.0848 41.3079 28.5656 39.096 27.0344" stroke="black" stroke-width="6" stroke-linecap="square"/>
<path d="M22.7986 28.3184C22.6155 28.3184 23.1647 28.3113 23.3473 28.2988" stroke="#363636" stroke-linecap="square" stroke-dasharray="1 2"/>
<path d="M22.7397 28.2012C22.9363 28.2012 23.132 28.2247 23.3277 28.2404" stroke="#363636" stroke-linecap="square" stroke-dasharray="1 2"/>
<path d="M24.0137 27.2598C24.0228 27.3327 24.4276 27.298 24.4644 27.299" stroke="#363636" stroke-linecap="square" stroke-dasharray="1 2"/>
<path d="M23.8765 24.2422C24.0147 24.2758 24.1551 24.2882 24.2967 24.3032C24.9386 24.3711 25.5815 24.4334 26.225 24.4839C26.6382 24.5164 27.0483 24.5638 27.4629 24.5754" stroke="#363636" stroke-linecap="square" stroke-dasharray="1 2"/>
<path d="M25.4443 23.0664C25.7486 23.1273 26.0518 23.1902 26.3589 23.2363C26.5435 23.2639 26.7283 23.2918 26.9142 23.3081C28.47 23.4442 26.492 23.2494 27.7961 23.3016" stroke="#363636" stroke-linecap="square" stroke-dasharray="1 2"/>
<path d="M29.0896 21.9297C29.4588 22.1183 29.8404 22.2504 30.2263 22.4" stroke="#363636" stroke-linecap="square" stroke-dasharray="1 2"/>
<path d="M23.1121 29.3186C23.2496 29.3439 23.3722 29.2953 23.504 29.2598" stroke="#363636" stroke-linecap="square" stroke-dasharray="1 2"/>
<path d="M32.3836 35.7168C32.3836 35.7662 32.3597 35.7963 32.3534 35.8417C32.2295 36.7317 32.2782 37.6517 32.2673 38.5469" stroke="#363636" stroke-linecap="square" stroke-dasharray="1 2"/>
<path d="M32.0734 36.3379C32.0205 37.2143 32.0592 38.0968 32.0734 38.9741" stroke="#363636" stroke-linecap="square" stroke-dasharray="1 2"/>
<path d="M33.5077 33.4688C33.5077 33.6713 33.4876 33.8669 33.4668 34.0697C33.3331 35.3692 33.1867 36.6674 33.0425 37.9658" stroke="#363636" stroke-linecap="square" stroke-dasharray="1 2"/>
<path d="M31.5305 37.7715C31.524 37.9184 31.4966 38.0533 31.4745 38.2001C31.3429 39.0755 31.2534 39.956 31.1428 40.8342" stroke="#363636" stroke-linecap="square" stroke-dasharray="1 2"/>
<path d="M33.1588 35.7168C33.1338 35.8206 33.1382 35.9063 33.1373 36.0162C33.1325 36.5762 33.0997 37.1344 33.0813 37.694" stroke="#363636" stroke-linecap="square" stroke-dasharray="1 2"/>
<path d="M17.729 38.1211C17.6654 39.2031 17.7224 40.2951 17.729 41.3776" stroke="#363636" stroke-linecap="square" stroke-dasharray="1 2"/>
<path d="M17.4965 40.9512C17.4084 41.7513 17.3399 42.5535 17.2639 43.3548" stroke="#363636" stroke-linecap="square" stroke-dasharray="1 2"/>
<path d="M18.5044 40.9512C18.4303 41.9456 18.3736 42.9412 18.3105 43.9363" stroke="#363636" stroke-linecap="square" stroke-dasharray="1 2"/>
<path d="M19.241 42.9668V44.5951" stroke="#363636" stroke-linecap="square" stroke-dasharray="1 2"/>
<path d="M19.7063 44.0918C19.7098 44.4931 19.729 44.8927 19.7451 45.2936" stroke="#363636" stroke-linecap="square" stroke-dasharray="1 2"/>
<path d="M18.4658 38.3145C18.3869 38.5 18.3777 38.6225 18.3581 38.8443C18.2391 40.1901 18.17 41.5414 18.0781 42.8891" stroke="#363636" stroke-linecap="square" stroke-dasharray="1 2"/>
<path d="M18.0393 40.6016C18.0803 41.4211 18.2116 42.2302 18.3107 43.044" stroke="#363636" stroke-linecap="square" stroke-dasharray="1 2"/>
<path d="M18.1943 41.7266L18.2331 42.2693" stroke="#363636" stroke-linecap="square" stroke-dasharray="1 2"/>
<path d="M38.1211 39.6719C38.1211 40.1382 38.092 40.6009 38.1211 41.0675" stroke="#363636" stroke-linecap="square" stroke-dasharray="1 2"/>
<path d="M38.0049 24.5527C38.0673 24.5564 38.1031 24.5739 38.1556 24.6087C38.5314 24.8574 38.8953 25.1227 39.2756 25.3647C39.8862 25.7533 40.5719 25.9939 41.1946 26.3619C42.1343 26.9172 42.8492 27.6454 43.4023 28.5846C43.5808 28.8878 43.7725 29.1874 43.8955 29.5194C44.0722 29.9965 44.1116 30.4891 44.2078 30.9839C44.4838 32.4036 44.4371 33.7336 44.2853 35.1752" stroke="#363636" stroke-linecap="square" stroke-dasharray="1 2"/>
<path d="M38.1211 23.4668C38.4486 23.6397 38.7399 23.919 39.0171 24.1517C40.0882 25.0511 41.2901 25.9537 42.0733 27.1325C42.6348 27.9776 42.976 28.9559 43.3117 29.9066C43.858 31.4536 44.4777 32.9552 44.8667 34.5545" stroke="#363636" stroke-linecap="square" stroke-dasharray="1 2"/>
<path d="M39.0903 25.5996C40.6627 27.0892 42.017 28.8543 42.9973 30.7859C43.3221 31.426 43.5913 32.0895 43.7425 32.7932C43.9066 33.557 43.8018 34.2603 43.7037 35.0203" stroke="#363636" stroke-linecap="square" stroke-dasharray="1 2"/>
<path d="M40.4861 27.8086C40.9794 28.7856 41.4755 29.7613 41.9614 30.742C42.2888 31.4028 42.6696 32.0686 42.8811 32.7795C43.1515 33.6886 43.3008 34.6532 43.4238 35.5924C43.5238 36.3548 43.6478 37.1678 43.6478 37.9357C43.6478 39.2247 43.0924 40.402 42.6183 41.5713" stroke="#363636" stroke-linecap="square" stroke-dasharray="1 2"/>
<path d="M21.3584 23.8021C22.0662 23.0059 22.668 22.2211 23.6378 21.6846C24.6042 21.1501 25.6721 20.787 26.7666 20.6377C29.7484 20.2311 32.664 19.2085 35.6868 19.5672C37.6718 19.8027 39.7473 20.561 41.3439 21.7794C42.7777 22.8736 43.7034 24.2661 44.5715 25.8287C44.8382 26.3088 45.1585 26.7129 45.3379 27.2311C45.6091 28.0145 46.025 28.7317 46.3176 29.5066C46.9374 31.1483 47.5393 32.817 47.7556 34.5711C47.9196 35.9012 48.042 37.4123 47.6687 38.7191C46.7869 41.8053 44.8156 44.5028 43.0466 47.1258" stroke="#040200" stroke-linecap="square" stroke-dasharray="1 2"/>
<path d="M22.5671 22.878C23.1142 22.5884 23.7527 22.4627 24.3291 22.2302C26.0275 21.545 27.6608 20.6851 29.4291 20.1838C31.9443 19.4708 34.7426 19.1609 37.3222 19.6821C39.5261 20.1273 41.6089 20.8067 43.4652 22.0958C44.291 22.6693 45.0119 23.301 45.5748 24.1422C46.1387 24.985 46.4618 25.9409 46.8824 26.8562C47.579 28.3722 48.0129 30.102 48.4507 31.7113C48.6857 32.5749 48.8995 33.3624 49.0196 34.2515C49.1321 35.0837 49.1311 35.892 49.0749 36.7285C48.9873 38.0338 48.915 39.4335 48.2374 40.5841C46.9762 42.7258 45.3264 44.6399 43.7576 46.5573" stroke="#040200" stroke-linecap="square" stroke-dasharray="1 2"/>
<path d="M26.4783 20.6017C28.9822 19.9946 31.6693 19.3388 34.2607 19.5903C35.5012 19.7107 36.738 20.087 37.9623 20.3172C38.87 20.4879 39.7851 20.6649 40.6605 20.9651C41.6715 21.3117 42.5661 21.8831 43.4496 22.4742C44.6343 23.2669 45.6309 24.548 46.2149 25.84C46.7718 27.0719 47.3703 28.3076 47.6647 29.6325C48.127 31.7126 48.2721 33.783 47.8109 35.8584C47.5708 36.939 47.2097 37.9778 46.8865 39.0346C46.2166 41.2254 45.499 43.3756 44.611 45.4897" stroke="#040200" stroke-linecap="square" stroke-dasharray="1 2"/>
<path d="M18.8278 7.03016C18.5448 7.48299 17.6337 7.5368 17.2205 7.81695C16.5431 8.27625 15.6316 9.17449 15.1299 9.66029C13.3532 11.3805 11.5877 13.1333 9.93147 14.9711C9.51556 15.4326 9.18442 15.9485 8.81311 16.4435C8.00959 17.5149 7.20794 18.6925 6.6944 19.9335C6.43121 20.5695 6.26954 21.3117 6.08182 21.9792C5.81815 22.9167 5.44386 23.8158 5.17701 24.7498C4.48278 27.1796 3.86959 29.6855 3.40674 32.1681C2.95876 34.5709 3.00108 36.7833 3.12574 39.1986C3.24496 41.5085 3.5907 43.8225 3.65401 46.1336C3.69989 47.8082 4.15147 49.5279 4.46328 51.1691C4.80164 52.9499 5.72781 54.9759 6.86861 56.3956C7.30344 56.9367 7.73747 57.5005 8.22863 57.9917C8.8119 58.5749 9.60165 58.907 10.2911 59.3404C11.2216 59.9253 12.1131 60.4591 13.0843 60.9702C14.0585 61.483 15.0894 61.7599 16.1078 62.1673C17.0853 62.5583 18.0241 62.9453 18.9515 63.4542C20.1991 64.1389 20.9566 64.706 22.4583 64.7019C24.658 64.6958 28.2005 64.5836 30.1688 64.5164C31.7652 64.4619 33.3616 64.407 34.957 64.3309C35.4502 64.3074 38.0962 64.21 39.1158 63.9825C39.6007 63.8743 40.1891 63.3132 40.6556 63.0946C41.5251 62.687 42.3526 62.2525 43.1452 61.7064C44.1423 61.0196 45.0018 60.1991 46.0395 59.554C46.9851 58.9662 47.7804 58.1774 48.6471 57.4802C49.9031 56.47 51.1291 55.5679 52.2158 54.3724C52.5908 53.9599 53.0077 53.6029 53.4241 53.2372C54.155 52.5954 54.6338 51.5611 55.2393 50.7925C56.3203 49.4206 57.5253 47.9364 58.3303 46.3753C58.8541 45.3594 59.4811 44.3935 59.9432 43.3461C60.2999 42.5377 60.7775 41.7393 61.0897 40.9183C61.6689 39.3953 62.0596 37.8178 62.5284 36.265C62.7434 35.5527 62.87 34.8539 63.1353 34.1463C63.3833 33.4851 63.6838 32.8429 63.8434 32.1512C64.0744 31.1502 64.126 30.3893 64.0457 29.3862C63.9542 28.2417 63.5564 27.1944 63.2871 26.0873C62.8604 24.3333 62.6737 22.5185 62.2193 20.7765C61.6964 18.7723 61.1706 16.7385 60.3085 14.8419C59.4766 13.0117 58.2988 11.4958 57.0152 9.96939C55.9347 8.68448 54.5787 7.87846 53.3229 6.80537C52.6255 6.20942 52.0683 5.61121 51.266 5.12501C50.3357 4.56119 49.2492 4.29762 48.2762 3.82681C47.1148 3.26484 46.0266 2.63388 44.775 2.28133C42.9168 1.75787 40.9197 1.60402 39.0034 1.41024C35.8999 1.09641 32.7672 1.04366 29.6743 1.46644C28.0081 1.69419 26.4121 2.26994 24.8973 2.98944C22.1806 4.2799 19.5805 5.68452 17.0969 7.38984C15.0204 8.81562 13.3452 10.4461 11.6006 12.2398C10.4363 13.4369 9.05481 14.4669 8.105 15.8534C7.08169 17.3472 6.01101 18.9127 5.19387 20.5292C4.65717 21.591 4.24382 22.659 3.96311 23.8169C3.19864 26.9703 2.78227 30.2383 2.23779 33.4326" stroke="black" stroke-linecap="square" stroke-dasharray="2 4 6 8"/>
<path d="M18.0653 6.61092C17.6782 7.34226 16.9296 7.58781 16.2936 8.10605C14.1858 9.82351 11.8953 11.6434 10.1953 13.7805C9.93069 14.1131 9.68941 14.4117 9.47126 14.7753C8.60582 16.2177 7.79835 17.5895 7.05786 19.1018C4.77855 23.7567 2.97996 28.2945 2.91386 33.5822C2.8615 37.7708 2.56283 42.1845 3.49072 46.3085C3.87489 48.016 4.56737 49.6222 5.18599 51.2531C5.57022 52.266 6.5081 52.8024 6.98722 53.7607C7.58444 54.9551 8.7185 55.7147 9.56545 56.7274C10.5285 57.8789 11.7134 58.8398 12.8147 59.853C13.8514 60.8068 14.8577 61.6914 15.9463 62.5784C16.6166 63.1246 17.2699 63.5132 17.9829 63.9794C18.683 64.4371 19.377 65.0144 20.208 65.2037C23.5609 65.9677 27.0064 65.8824 30.4385 65.8395C31.1425 65.8307 31.9449 65.7878 32.64 65.6747C33.8374 65.4797 34.8966 65.0513 36.0423 64.6622C37.2282 64.2594 38.3024 63.5504 39.4152 62.9846C40.6507 62.3563 41.7958 61.8028 42.9117 60.9597C43.8216 60.2721 44.7968 59.7 45.7548 59.0819C46.7201 58.4592 47.5597 57.6864 48.5096 57.0452C50.0848 55.982 51.3998 54.5502 52.9126 53.4016C53.7795 52.7434 54.5596 52.2306 55.2554 51.3767C55.8812 50.6086 56.7081 50.107 57.2921 49.287C57.866 48.481 58.3647 47.5946 58.8931 46.7559C59.8896 45.1746 60.6261 43.5647 61.1947 41.7878C61.5055 40.8165 61.905 39.8749 62.2248 38.9035C62.6126 37.7259 62.7066 36.525 62.9901 35.3246C63.3042 33.994 63.4316 32.6039 63.5139 31.2453C63.7386 27.5384 63.8394 23.7378 62.9076 20.1142C62.696 19.291 62.2758 18.5749 61.9128 17.8127C61.501 16.9478 61.181 16.0292 60.6473 15.2285C59.5841 13.6338 58.6466 11.9594 57.5628 10.3782C57.0307 9.60178 56.3731 9.00168 55.8028 8.26498C55.1514 7.42357 54.4849 6.69989 53.6131 6.08114C52.0089 4.94271 50.1511 3.96372 48.3507 3.1674C46.9499 2.54784 45.198 2.32533 43.6828 2.18437C41.8486 2.01375 40.003 1.84125 38.1732 1.63106C36.689 1.46058 35.2451 1.27501 33.7466 1.31908C32.0639 1.36857 30.4118 1.66739 28.7432 1.83708C27.176 1.99646 25.5867 2.39974 24.1872 3.13796C22.632 3.95829 20.9739 4.62961 19.5016 5.59846C18 6.58661 16.4921 7.64568 15.0869 8.76532C12.0808 11.1604 9.76292 14.471 7.36395 17.4183" stroke="black" stroke-width="2" stroke-linecap="square" stroke-dasharray="2 4 6 8"/>
<path d="M19.0188 25.8937C19.4837 24.9058 20.3764 24.4545 21.1968 23.7982C22.1936 23.0007 23.5576 22.1196 24.7874 21.738C26.2253 21.2917 27.6959 20.9994 29.1904 20.8315C30.7253 20.659 32.3871 20.2585 33.9348 20.4077C36.2201 20.6279 38.9564 20.4756 41.0573 21.5261C41.9448 21.9698 42.5374 22.6817 43.3648 23.2213C44.1736 23.7488 44.9144 24.4909 45.4074 25.3228C46.5754 27.2938 48.3082 29.4335 48.5742 31.8272C48.7324 33.2512 48.792 34.6901 48.792 36.1301C48.792 37.0689 48.6868 38.0355 48.5271 38.9615C48.3626 39.9155 47.8444 40.8207 47.7383 41.7751C47.6451 42.6143 46.9747 43.1327 46.5199 43.7942C45.8061 44.8324 45.0146 45.6703 44.13 46.5549" stroke="black" stroke-width="2" stroke-linecap="square" stroke-dasharray="2 4 6 8"/>
<path d="M27.4219 21.459C27.2295 21.459 27.081 21.4751 26.8931 21.5377C25.0446 22.1539 23.2375 24.0487 21.819 25.2393C20.6205 26.2451 18.8014 27.4908 17.808 28.7945C17.4566 29.2558 17.2008 29.758 16.8123 30.1897C16.3506 30.7027 16.3019 31.482 16.0304 32.0854C15.7299 32.7532 15.5005 33.4502 15.1922 34.1162C14.7504 35.0705 14.8659 36.3314 14.8659 37.3565C14.8659 38.0368 15.0955 36.6674 15.1247 36.5239C15.3516 35.41 15.8152 34.384 16.1598 33.3061C16.4528 32.3898 16.6939 31.474 17.0936 30.5947C17.4385 29.8359 17.7476 29.0748 18.0612 28.3051C18.2245 27.9043 18.5919 27.5854 18.8206 27.2194C19.2878 26.4718 19.9919 25.6165 20.6939 25.0705C20.8416 24.9556 20.9539 24.8108 21.0933 24.6992C21.1398 24.662 20.4973 25.1913 20.3732 25.3237C19.2399 26.5325 17.96 27.7604 17.1948 29.2558C16.6174 30.3845 16.4333 31.7272 16.0866 32.9405C15.8424 33.7952 15.7918 34.6285 15.6535 35.5001C15.3354 37.5039 15.4718 39.5041 15.7997 41.508C15.9443 42.3915 16.3979 43.2125 16.5929 44.0901C16.7531 44.8109 17.4149 45.364 17.7799 45.9859C18.1484 46.6137 18.4401 47.1969 18.8656 47.786C19.2675 48.3425 20.0138 48.7372 20.5139 49.2261C21.8121 50.4955 23.2079 51.6355 24.9917 52.1176C26.276 52.4647 27.5967 52.7255 28.9408 52.5226C29.4807 52.4411 30.0349 52.3368 30.5609 52.1907C31.1515 52.0267 31.8146 52.0841 32.406 51.9151C33.6551 51.5582 35.0693 51.6168 36.2088 50.925C36.7161 50.617 37.3117 50.3842 37.6996 49.9068C38.1704 49.3273 38.8556 48.9874 39.3253 48.4161C39.748 47.902 39.9239 47.0477 40.3829 46.6215C40.6294 46.3927 40.7876 46.0231 40.9342 45.7271C41.5635 44.4563 42.0773 43.1243 42.6106 41.8118" stroke="black" stroke-width="2" stroke-linecap="square" stroke-dasharray="2 4 6 8"/>
<path d="M37.0413 49.4052C37.1945 49.1157 37.3291 49.1535 37.5982 49.0115C38.3266 48.627 39.0553 48.1394 39.6177 47.532C40.1398 46.9681 40.6719 46.3657 41.1478 45.76C42.1477 44.4873 43.0356 42.7948 43.3192 41.164C43.5545 39.8113 44.2513 38.4865 44.6581 37.1755C44.8418 36.5836 44.8215 36.0458 44.8381 35.4317C44.8677 34.338 44.924 33.3082 44.8381 32.1914" stroke="black" stroke-width="2" stroke-linecap="square" stroke-dasharray="2 4 6 8"/>
</svg>
