<svg width="360" height="31" viewBox="0 0 360 31" fill="none" xmlns="http://www.w3.org/2000/svg">
<path d="M7.54261 30H0.951705L10.9943 0.90909H18.9205L28.9489 30H22.358L15.071 7.55682H14.8438L7.54261 30ZM7.13068 18.5653H22.6989V23.3665H7.13068V18.5653ZM132.365 10.3125C132.166 9.62121 131.887 9.01042 131.527 8.48011C131.167 7.94034 130.727 7.4858 130.206 7.11648C129.695 6.73769 129.107 6.44886 128.445 6.25C127.791 6.05114 127.067 5.9517 126.271 5.9517C124.785 5.9517 123.478 6.32102 122.351 7.05966C121.233 7.79829 120.362 8.87311 119.737 10.2841C119.112 11.6856 118.8 13.3996 118.8 15.4261C118.8 17.4527 119.107 19.1761 119.723 20.5966C120.339 22.017 121.21 23.1013 122.337 23.8494C123.464 24.5881 124.794 24.9574 126.328 24.9574C127.72 24.9574 128.909 24.7112 129.893 24.2188C130.888 23.7169 131.645 23.0114 132.166 22.1023C132.696 21.1932 132.962 20.1184 132.962 18.8778L134.212 19.0625H126.712V14.4318H138.885V18.0966C138.885 20.6534 138.345 22.8504 137.266 24.6875C136.186 26.5152 134.699 27.9261 132.805 28.9205C130.911 29.9053 128.743 30.3977 126.3 30.3977C123.572 30.3977 121.177 29.7964 119.112 28.5938C117.048 27.3816 115.438 25.6629 114.283 23.4375C113.137 21.2027 112.564 18.5511 112.564 15.483C112.564 13.125 112.905 11.0227 113.587 9.17614C114.278 7.32008 115.244 5.74811 116.484 4.46023C117.725 3.17235 119.169 2.19223 120.817 1.51989C122.464 0.847537 124.25 0.511363 126.172 0.511363C127.82 0.511363 129.354 0.75284 130.774 1.2358C132.195 1.70928 133.454 2.38163 134.553 3.25284C135.661 4.12405 136.565 5.16098 137.266 6.36364C137.966 7.55682 138.416 8.87311 138.615 10.3125H132.365ZM147.621 30H141.03L151.072 0.90909H158.999L169.027 30H162.436L155.149 7.55682H154.922L147.621 30ZM147.209 18.5653H162.777V23.3665H147.209V18.5653ZM172.528 30V0.90909H178.679V24.929H191.151V30H172.528ZM195.224 30V0.90909H201.374V24.929H213.846V30H195.224ZM217.919 30V0.90909H237.521V5.98011H224.07V12.9119H236.513V17.983H224.07V24.929H237.578V30H217.919ZM242.411 30V0.90909H253.888C256.085 0.90909 257.96 1.30208 259.513 2.08807C261.076 2.86458 262.264 3.9678 263.079 5.39773C263.903 6.81818 264.315 8.48958 264.315 10.4119C264.315 12.3437 263.898 14.0057 263.065 15.3977C262.231 16.7803 261.024 17.8409 259.442 18.5795C257.871 19.3182 255.967 19.6875 253.732 19.6875H246.048V14.7443H252.738C253.912 14.7443 254.888 14.5833 255.664 14.2614C256.441 13.9394 257.018 13.4564 257.397 12.8125C257.785 12.1686 257.979 11.3684 257.979 10.4119C257.979 9.44602 257.785 8.63163 257.397 7.96875C257.018 7.30587 256.436 6.80398 255.65 6.46307C254.873 6.11269 253.893 5.9375 252.71 5.9375H248.562V30H242.411ZM258.121 16.7614L265.352 30H258.562L251.488 16.7614H258.121ZM265.746 0.90909H272.635L279.268 13.4375H279.553L286.186 0.90909H293.075L282.464 19.7159V30H276.357V19.7159L265.746 0.90909ZM297.124 30.3693C296.186 30.3693 295.381 30.0379 294.709 29.375C294.046 28.7027 293.714 27.8977 293.714 26.9602C293.714 26.0322 294.046 25.2367 294.709 24.5739C295.381 23.911 296.186 23.5795 297.124 23.5795C298.033 23.5795 298.828 23.911 299.51 24.5739C300.192 25.2367 300.533 26.0322 300.533 26.9602C300.533 27.5852 300.372 28.1581 300.05 28.679C299.737 29.1903 299.325 29.6023 298.814 29.9148C298.303 30.2178 297.739 30.3693 297.124 30.3693ZM315.927 30H305.614V0.90909H316.012C318.938 0.90909 321.457 1.49148 323.569 2.65625C325.681 3.81155 327.305 5.47348 328.441 7.64205C329.587 9.81061 330.16 12.4053 330.16 15.4261C330.16 18.4564 329.587 21.0606 328.441 23.2386C327.305 25.4167 325.671 27.0881 323.54 28.2528C321.419 29.4176 318.881 30 315.927 30ZM311.765 24.7301H315.671C317.489 24.7301 319.019 24.4081 320.259 23.7642C321.509 23.1108 322.447 22.1023 323.072 20.7386C323.706 19.3655 324.023 17.5947 324.023 15.4261C324.023 13.2765 323.706 11.5199 323.072 10.1562C322.447 8.79261 321.514 7.78883 320.273 7.14489C319.033 6.50095 317.504 6.17898 315.685 6.17898H311.765V24.7301ZM334.716 30V0.90909H340.866V13.7358H341.25L351.719 0.90909H359.091L348.295 13.9347L359.219 30H351.861L343.892 18.0398L340.866 21.733V30H334.716Z" fill="black"/>
<path d="M56.7827 0.90909V30H51.4702L38.8139 11.6903H38.6009V30H32.4503V0.90909H37.848L50.4048 19.2045H50.6605V0.90909H56.7827ZM61.8643 30V0.90909H81.4666V5.98011H68.0149V12.9119H80.4581V17.983H68.0149V24.929H81.5234V30H61.8643ZM85.2486 5.98011V0.90909H109.141V5.98011H100.234V30H94.1548V5.98011H85.2486Z" fill="#E21A21"/>
</svg>
